<?xml version="1.0" encoding="utf-8"?>
<!-- Generator: Adobe Illustrator 23.0.1, SVG Export Plug-In . SVG Version: 6.00 Build 0)  -->
<svg version="1.1" id="Layer_1" xmlns="http://www.w3.org/2000/svg" xmlns:xlink="http://www.w3.org/1999/xlink" x="0px" y="0px"
	 viewBox="0 0 176 166.8" style="enable-background:new 0 0 176 166.8;" xml:space="preserve">
<style type="text/css">
	.st0{fill:#99999A;}
	.st1{fill:#001F5B;}
	.st2{fill:#071C2C;}
	.st3{fill:#FFFFFF;}
</style>
<title>Vancouver Canucks light logo</title>
<path class="st0" d="M86,103.3L122.8,85c25.2,7.1,32.7,16.6,32.7,16.6l14.4-16.3c0.8-0.8,3.2-3.8,3.2-9.1c0-5.8-6-10.2-10.3-13.3
	C155.6,44,115.8,38.6,112.9,32c-1-2.3-6.8-21.9-6.8-21.9C102.7,0,92.5,0,88.6,0c-3.9,0-12.2,1.3-12.2,1.3c0,14.1-1.9,31.4-3.9,34.5
	c0,0-7.2,3.7-15.6,6.8L36.9,29.1l5.3,18.3C8.2,65.9,0,98.4,0,98.4s8.7,68.4,94.5,68.4c45.3,0,71.5-21.9,71.5-21.9l-14.6-32.7
	c0,0-22.3,11.6-50.8,11.6c-26.3,0-36.5-12.2-40.3-19.4C82.5,105.1,86,103.3,86,103.3L86,103.3z"/>
<path class="st1" d="M84.6,99.7l37.7-18.9c25.6,7.2,33,15.1,33,15.1L167,82.7c0,0,2.2-2,2.2-6.6c0-4.2-6.3-8.5-9.7-10.9
	c-7-18.9-45.6-22.4-49.9-31.3c-1.7-3.6-3.9-12.1-7.1-22.6c-2.6-7.5-10.1-7.5-13.8-7.5c-3.6,0-8.3,0.7-8.3,0.7c0,7.7-1.4,30.1-5,34
	c-0.9,1.2-7.5,3.8-14.6,6.6l2.1,1.4l-2.2,2.2l-4.1,4.2L51.9,67L46,64l2.1,5.2L37.6,71l6,2.1L26.4,86.2l4.6,0.4l-6.1,11
	c8.8-4,11.5-4.8,11.5-4.8l-2.5-2.6L51.7,83c0,0-1.3,3.6-1.3,10.5c0,1,0.1,2.4,0.5,4.1c2.2,10.8,12.7,32.9,49.7,32.9
	c26.8,0,47.5-9.4,47.5-9.4l9.6,21.5c0,0-25.1,17.4-63.1,17.4C16.7,160,6.9,98.9,6.9,98.9c10.7-28.6,28.7-41.2,40.2-46.5l-3.6-0.3
	L43.2,51C12.9,67.7,3.9,98.7,3.9,98.7S13.1,163,94.4,163c41.6,0,66.7-19.3,66.7-19.3l-11.8-26.3c0,0-22,10.3-48.9,10.3
	c-40.1,0-46-27.4-46-27.4S77.3,101.7,84.6,99.7L84.6,99.7z M165.7,79.5c0.2-0.8,0.3-1.5,0.2-2.2C166,78,166,78.8,165.7,79.5
	c0.3-0.6,0.6-1.5,0.6-2.6C166.4,78,166.1,78.9,165.7,79.5L165.7,79.5z"/>
<path class="st2" d="M157.1,67.1c-6.5-18.5-41.9-19.8-49.9-31.5c-2.2-3.2-5.9-24-9.6-26.8c-4.1-3.1-14.4-1.7-14.4-1.7
	c0,2.9-0.7,28.3-6,33.6c-3.5,3-9.5,4.3-16.6,8.1l-4.1,4.2L51.9,67L46,64l2.1,5.2L37.6,71l6,2.1L26.4,86.2l4.6,0.4l-6.1,11
	c8.8-4,11.5-4.8,11.5-4.8l-2.5-2.6L51.7,83c0,0-1.3,3.6-1.3,10.5c0,1,0.1,2.4,0.5,4.1c0.7-0.7,16.1-16,32.1-19.3L58.1,97.6
	c0,0,20.4,0.9,25.5-0.6c15.8-7.3,28.5-14.3,38.4-19.2c23.1,6.1,32.9,14.1,32.9,14.1l2.5-2.7c-1.2-0.9-9.6-6.7-26.3-12.2
	c5-2,11-4.3,12.6-4.3c3.7,0,11.2,4.8,19.4,10.1l1.8-2.1c0,0,0.4-0.4,0.8-1.2c0.3-0.6,0.6-1.5,0.6-2.6
	C166.4,73.1,161.4,70.5,157.1,67.1L157.1,67.1z"/>
<path class="st0" d="M67.7,64.3l-9.6,5.4l19.1,2.6L67.7,64.3L67.7,64.3z M55.3,79.4L57,67.5l-22.2,15C34.8,82.5,55.3,79.4,55.3,79.4
	z M74,46.5L58,55.4l4.2,10C62.2,65.4,74,46.5,74,46.5z"/>
<g>
	<path class="st3" d="M172,136.9c-2.2,0-4,1.8-4,4c0,2.2,1.8,4,4,4c2.2,0,4-1.8,4-4C176,138.7,174.2,136.9,172,136.9L172,136.9z
		 M172,144c-1.7,0-3.1-1.4-3.1-3.2s1.4-3.1,3.1-3.1c1.7,0,3.2,1.4,3.2,3.1S173.7,144,172,144L172,144z"/>
	<path class="st3" d="M173.6,140c0-0.7-0.6-1.3-1.3-1.3h-1.9v4.5h0.9v-1.9h0.6l0.9,1.9h0.9l-0.9-1.9
		C173.3,141.1,173.6,140.6,173.6,140L173.6,140z M172.3,140.5h-1.1v-1h1.1c0.3,0,0.5,0.2,0.5,0.5
		C172.8,140.2,172.6,140.5,172.3,140.5L172.3,140.5z M40.2,80.4l13.7-2.2l1.4-8.1L40.2,80.4L40.2,80.4z M73.9,70.7l-7.3-4.3
		l-5.2,2.8L73.9,70.7z M61.8,62.2l8.8-11.9L60.4,56L61.8,62.2L61.8,62.2z"/>
	<path class="st3" d="M100.5,133.7c-42.6,0-53.3-29.2-53.3-40.2c0-2.5,0.2-4.5,0.4-6.2l-9.8,3.2l1.3,2.8l-7.6,2.8l-6.6,4.3l13.4,2.5
		l-2.8,9.6l5.7-1.7l5.5,14l6.6-0.8l2.2,9.8c0,0,12.4,8.6,33.4,10.5c27.8,2.5,52.6-7,52.6-7s-29.7,11.6-56.6,8.7
		c-20.6-2.2-34-10.6-34-10.6l-0.2-8.9l-8.1,0.1l-3.8-13.6l-7.2,3.4l3.2-12.2l-13.9-1.7l2.8-8.5l3.3-6.7l-4.4,0.1l18.6-13.8l-8.1-3.2
		l13.2-2.6l-4.6-9.2l8.1,4.7L53,53.4c-9.7,3.4-30.7,14.2-42.9,45.9c1.5,7.3,14.2,57.7,84.3,57.7c30.2,0,52.3-11.5,59.2-15.5
		l-7.3-16.2C139.7,127.8,122.1,133.7,100.5,133.7L100.5,133.7z M40,33.9l5.6,16.5l9.9,2.4l4-5.4L40,33.9z M95,35.1
		c-1.5-1.8-3.2-20.3-3.2-20.3s-0.3,18.8-1.4,20.5c-1.1,1.7-6.5,4.8-6.5,4.8s6-2,9-2.1c2.2-0.1,9,1.3,9,1.3S96.4,36.9,95,35.1
		L95,35.1z"/>
	<path class="st3" d="M95.5,68.7c-30,1.8-43.9,27.5-44.7,29c0.7-0.7,16.1-16,32.2-19.3L95.5,68.7z M157.1,67.1
		c-16.8-1.9-21.4-5.9-21.4-8.5c0-1,0.9-1.3,1.7-1.3c3.8,0,8.8,2.7,11.7,5.8c-1.7-4.4-11.8-9.6-18.3-9.6c-1.2,0-3,0.4-3,2.4
		c0,4.1,6.2,9.4,22.2,10.7c8.6,2,17.5,6.8,15.8,13c0.3-0.6,0.6-1.5,0.6-2.6C166.4,73.1,161.4,70.5,157.1,67.1L157.1,67.1z
		 M134.9,76.9l6.2,2.2c1.1-0.5,2.4-1.1,2.5-1.3c0.1-0.2,0.1-0.3-0.2-0.5c-0.2-0.2-3-1.2-4.7-1.9L134.9,76.9L134.9,76.9z M140.1,74.9
		c1.7,0.7,4,1.6,4.2,1.6c0.3,0.1,0.7,0.1,0.9,0c0.2,0,1.6-0.7,2.6-1.3c-1-0.5-2.9-1.4-4.2-1.4C142.3,73.9,140.1,74.9,140.1,74.9
		L140.1,74.9z M146.3,77.1c0,0.1,0,0.2,0.2,0.4c0.2,0.2,3.5,1.9,3.7,1.9c0.3,0,0.5,0,0.8,0c0.2-0.1,1.3-0.8,2-1.3l-4.3-2.3
		C147.6,76.2,146.4,76.9,146.3,77.1L146.3,77.1z M149.3,80.5c0.1-0.1,0.2-0.3,0.1-0.4c-0.2-0.2-3.4-1.9-3.8-1.9
		c-0.4-0.1-0.6-0.1-0.9,0.1c-0.3,0.1-1.9,1-2.5,1.4l5,2.3C148.2,81.3,149.3,80.6,149.3,80.5L149.3,80.5z M155.5,82.2
		c0.1,0,0.4-0.1,0.8-0.2c0.2-0.1,0.9-0.6,1.4-1.1l-3.9-2.5c-0.9,0.6-1.9,1.3-2,1.4c0,0.1,0,0.1,0.2,0.4L155.5,82.2L155.5,82.2z
		 M157.1,82.6C157,82.9,157,83,157,83c0.1,0.1,2.1,1.5,3.5,2.4l1.5-1.5l-3.5-2.3C157.9,82,157.1,82.5,157.1,82.6z M154.9,83.3
		c0.1-0.1,0-0.3-0.1-0.4c-0.2-0.2-3.3-1.9-3.5-1.9c-0.3-0.1-0.7,0-1,0.1c-0.1,0-1,0.7-1.9,1.3l4.8,2.2
		C153.9,84,154.8,83.4,154.9,83.3L154.9,83.3z M155.7,83.9c-0.1,0.1-1,0.7-1.7,1.2l4.3,2.7l1.6-1.8c-1.3-0.9-3.2-2.2-3.3-2.2
		C156.4,83.8,155.9,83.8,155.7,83.9L155.7,83.9z"/>
	<path class="st3" d="M122.1,77.8c23.1,6.1,32.9,14.1,32.9,14.1l2.5-2.7c-1.2-0.9-9.6-6.7-26.3-12.2c5-2,11-4.3,12.6-4.3
		c3.7,0,11.2,4.8,19.4,10.1l1.8-2.1c-7.1-4.9-15.4-10.7-21.4-10.7C138.6,70,131.6,73,122.1,77.8L122.1,77.8z"/>
</g>
</svg>
